<svg xmlns="http://www.w3.org/2000/svg" viewBox="0 0 293.9 290.3"><defs><style>.cls-1{fill:#007237;}.cls-2{fill:#f2f2f2;}.cls-3{fill:#fff;}</style></defs><g id="Layer_2" data-name="Layer 2"><g id="Layer_1-2" data-name="Layer 1"><path class="cls-1" d="M269.1,290.3H29A24.69,24.69,0,0,1,4.3,265.6V25.5A24.69,24.69,0,0,1,29,.8H269.2a24.69,24.69,0,0,1,24.7,24.7V265.7A24.75,24.75,0,0,1,269.1,290.3Z"/><path class="cls-2" d="M113.9,236.4V0H147V233.6Zm44.3,3.2q-11.25,0-22.2-.9c-7.3-.6-14.7-1.3-22.2-2.3l12.8-30.6a49.34,49.34,0,0,0,18.3,4.6c6.7.5,13.3.7,19.8.7q29.85,0,46.2-18.1t16.3-51.2c0-15.1-3.3-26.8-9.9-35s-16-12.3-28.2-12.3q-42.15,0-42.2,47.9l-9.7-42.9H150q2.4-33.45,40.6-33.4,33.15,0,51.2,19.7c12.1,13.1,18.1,31.8,18.1,55.9q0,46.5-26.6,72.1C215.7,231,190.6,239.6,158.2,239.6Z"/><path class="cls-3" d="M1.4,274.5,0,248.8l27.1-2.5c14.6-1.3,25.1-5.5,31.7-12.8s9.8-18.3,9.8-33.2V156.2H97.4v39.7c0,17.2-2.5,31.3-7.6,42.2a51.89,51.89,0,0,1-23.7,24.6Q49.9,271,24.4,272.9ZM12.8,89.2V63.7H70.9V89.2ZM80.1,40.7a19.36,19.36,0,0,1-14.2-6A19.71,19.71,0,0,1,60,20.4,19.78,19.78,0,0,1,65.9,6,19.49,19.49,0,0,1,80.1.1,19.17,19.17,0,0,1,94.3,6a19.53,19.53,0,0,1,5.8,14.4,19.62,19.62,0,0,1-5.8,14.3A18.89,18.89,0,0,1,80.1,40.7ZM68.7,160.9V63.7H97.5v97.2Z"/></g></g></svg>